<svg xmlns="http://www.w3.org/2000/svg" width="960" height="960" viewBox="0 0 960 960" fill="none"><rect width="960" height="960" fill="#F5F5EB"/><text x="55" y="65" font-family="sans-serif" font-size="30" fill="#193E32">VTubeLeaf · three original directions</text><g transform="translate(45 105)"><rect width="870" height="254" rx="24" fill="white"/><g transform="translate(15 0) scale(.9)"><path d="M52 213C15 135 64 50 218 32C241 137 193 220 113 226C89 228 69 224 52 213Z" fill="#398565"/><path d="m74 198-34 38" stroke="#398565" stroke-width="17" stroke-linecap="round"/><path d="M70 132Q126 72 186 126Q135 186 70 132Z" fill="#F5FAF2"/><circle cx="129" cy="128" r="22" fill="#193E32"/></g><text x="270" y="72" font-family="sans-serif" font-size="25" fill="#193E32">01 / Leaf eye · provisional default</text><g transform="translate(285 110) scale(.0625)"><path d="M52 213C15 135 64 50 218 32C241 137 193 220 113 226C89 228 69 224 52 213Z" fill="#398565"/><path d="m74 198-34 38" stroke="#398565" stroke-width="17" stroke-linecap="round"/><path d="M70 132Q126 72 186 126Q135 186 70 132Z" fill="#F5FAF2"/><circle cx="129" cy="128" r="22" fill="#193E32"/></g><g transform="translate(340 104) scale(.125)"><path d="M52 213C15 135 64 50 218 32C241 137 193 220 113 226C89 228 69 224 52 213Z" fill="#398565"/><path d="m74 198-34 38" stroke="#398565" stroke-width="17" stroke-linecap="round"/><path d="M70 132Q126 72 186 126Q135 186 70 132Z" fill="#F5FAF2"/><circle cx="129" cy="128" r="22" fill="#193E32"/></g><g transform="translate(415 88) scale(.25)"><path d="M52 213C15 135 64 50 218 32C241 137 193 220 113 226C89 228 69 224 52 213Z" fill="#398565"/><path d="m74 198-34 38" stroke="#398565" stroke-width="17" stroke-linecap="round"/><path d="M70 132Q126 72 186 126Q135 186 70 132Z" fill="#F5FAF2"/><circle cx="129" cy="128" r="22" fill="#193E32"/></g><text x="275" y="190" font-family="sans-serif" font-size="16" fill="#546B5B">16 px / 32 px / 64 px · editable vector</text></g><g transform="translate(45 383)"><rect width="870" height="254" rx="24" fill="white"/><g transform="translate(15 0) scale(.9)"><path d="M128 105C66 104 37 75 39 32C98 34 126 61 128 105Z" fill="#398565"/><path d="M128 105C133 59 164 39 218 44C209 88 180 109 128 105Z" fill="#69A783"/><rect x="52" y="100" width="152" height="126" rx="60" fill="#193E32"/><path d="M84 151q15-19 30 0m30 0q15-19 30 0" stroke="#F5FAF2" stroke-width="10" stroke-linecap="round"/><path d="M111 187q17 15 34 0" stroke="#F5FAF2" stroke-width="8" stroke-linecap="round"/></g><text x="270" y="72" font-family="sans-serif" font-size="25" fill="#193E32">02 / Sprout face</text><g transform="translate(285 110) scale(.0625)"><path d="M128 105C66 104 37 75 39 32C98 34 126 61 128 105Z" fill="#398565"/><path d="M128 105C133 59 164 39 218 44C209 88 180 109 128 105Z" fill="#69A783"/><rect x="52" y="100" width="152" height="126" rx="60" fill="#193E32"/><path d="M84 151q15-19 30 0m30 0q15-19 30 0" stroke="#F5FAF2" stroke-width="10" stroke-linecap="round"/><path d="M111 187q17 15 34 0" stroke="#F5FAF2" stroke-width="8" stroke-linecap="round"/></g><g transform="translate(340 104) scale(.125)"><path d="M128 105C66 104 37 75 39 32C98 34 126 61 128 105Z" fill="#398565"/><path d="M128 105C133 59 164 39 218 44C209 88 180 109 128 105Z" fill="#69A783"/><rect x="52" y="100" width="152" height="126" rx="60" fill="#193E32"/><path d="M84 151q15-19 30 0m30 0q15-19 30 0" stroke="#F5FAF2" stroke-width="10" stroke-linecap="round"/><path d="M111 187q17 15 34 0" stroke="#F5FAF2" stroke-width="8" stroke-linecap="round"/></g><g transform="translate(415 88) scale(.25)"><path d="M128 105C66 104 37 75 39 32C98 34 126 61 128 105Z" fill="#398565"/><path d="M128 105C133 59 164 39 218 44C209 88 180 109 128 105Z" fill="#69A783"/><rect x="52" y="100" width="152" height="126" rx="60" fill="#193E32"/><path d="M84 151q15-19 30 0m30 0q15-19 30 0" stroke="#F5FAF2" stroke-width="10" stroke-linecap="round"/><path d="M111 187q17 15 34 0" stroke="#F5FAF2" stroke-width="8" stroke-linecap="round"/></g><text x="275" y="190" font-family="sans-serif" font-size="16" fill="#546B5B">16 px / 32 px / 64 px · editable vector</text></g><g transform="translate(45 661)"><rect width="870" height="254" rx="24" fill="white"/><g transform="translate(15 0) scale(.9)"><path d="m32 62 78 161C66 218 17 153 32 62Z" fill="#193E32"/><path d="M112 219C116 104 154 56 228 31C239 133 196 207 112 219Z" fill="#398565"/><path d="m49 47 21-15m8 42 27-10" stroke="#69A783" stroke-width="11" stroke-linecap="round"/></g><text x="270" y="72" font-family="sans-serif" font-size="25" fill="#193E32">03 / Flutter V</text><g transform="translate(285 110) scale(.0625)"><path d="m32 62 78 161C66 218 17 153 32 62Z" fill="#193E32"/><path d="M112 219C116 104 154 56 228 31C239 133 196 207 112 219Z" fill="#398565"/><path d="m49 47 21-15m8 42 27-10" stroke="#69A783" stroke-width="11" stroke-linecap="round"/></g><g transform="translate(340 104) scale(.125)"><path d="m32 62 78 161C66 218 17 153 32 62Z" fill="#193E32"/><path d="M112 219C116 104 154 56 228 31C239 133 196 207 112 219Z" fill="#398565"/><path d="m49 47 21-15m8 42 27-10" stroke="#69A783" stroke-width="11" stroke-linecap="round"/></g><g transform="translate(415 88) scale(.25)"><path d="m32 62 78 161C66 218 17 153 32 62Z" fill="#193E32"/><path d="M112 219C116 104 154 56 228 31C239 133 196 207 112 219Z" fill="#398565"/><path d="m49 47 21-15m8 42 27-10" stroke="#69A783" stroke-width="11" stroke-linecap="round"/></g><text x="275" y="190" font-family="sans-serif" font-size="16" fill="#546B5B">16 px / 32 px / 64 px · editable vector</text></g></svg>
